<svg width="20" height="20" viewBox="0 0 20 20" fill="none" xmlns="http://www.w3.org/2000/svg">
<path fill-rule="evenodd" clip-rule="evenodd" d="M7.31694 12.6831C7.56102 12.9271 7.56102 13.3229 7.31694 13.5669L4.19194 16.6919C3.94786 16.936 3.55214 16.936 3.30806 16.6919C3.06398 16.4479 3.06398 16.0521 3.30806 15.8081L6.43306 12.6831C6.67714 12.439 7.07286 12.439 7.31694 12.6831Z" fill="#8FA0AF"/>
<path fill-rule="evenodd" clip-rule="evenodd" d="M12.0173 1.60578C12.1702 1.54176 12.3343 1.50879 12.5 1.50879C12.6658 1.50879 12.8299 1.54176 12.9828 1.60578C13.1348 1.66943 13.2727 1.7625 13.3886 1.87964L18.1203 6.61133C18.2375 6.72723 18.3305 6.86515 18.3942 7.01716C18.4582 7.17006 18.4912 7.33417 18.4912 7.49993C18.4912 7.6657 18.4582 7.8298 18.3942 7.9827C18.3305 8.13471 18.2375 8.27261 18.1203 8.3885L13.5543 12.9546C14.2842 14.944 13.1477 16.8154 12.5224 17.6419C12.4144 17.7853 12.2768 17.9038 12.1189 17.9893C11.9607 18.0749 11.7859 18.1254 11.6064 18.1372C11.4269 18.1491 11.247 18.1221 11.0789 18.0581C10.9118 17.9944 10.7603 17.8956 10.6346 17.7684L2.21624 9.35002L2.21515 9.34894C2.09093 9.22548 1.99403 9.07729 1.93075 8.91397C1.86729 8.75017 1.83905 8.57484 1.8479 8.3994C1.85675 8.22396 1.90247 8.05235 1.98209 7.89577C2.06171 7.73919 2.17344 7.60115 2.30999 7.49064C3.60274 6.446 4.87877 6.21139 5.84334 6.25446C6.32012 6.27575 6.71515 6.36424 6.99449 6.44894C7.00685 6.45269 7.01899 6.45643 7.03091 6.46016L11.6114 1.87969C11.7273 1.76253 11.8652 1.66944 12.0173 1.60578ZM17.2378 7.49656L12.5 2.7588L12.4967 2.7622L7.62947 7.62937C7.43997 7.81887 7.1509 7.86637 6.91088 7.74787L6.90306 7.74423C6.89393 7.74006 6.87728 7.73267 6.85359 7.72299C6.80614 7.7036 6.73094 7.67523 6.63178 7.64516C6.43285 7.58484 6.14185 7.51903 5.78758 7.50322C5.09011 7.47207 4.12375 7.63223 3.09631 8.46234L3.09822 8.46424L11.5239 16.8899L11.5251 16.8884C12.1683 16.0384 12.9745 14.5276 12.254 13.0929C12.1331 12.8521 12.1801 12.561 12.3706 12.3705L17.2412 7.49992L17.2378 7.49656Z" fill="#8FA0AF"/>
</svg>
